<?xml version="1.0" encoding="UTF-8" ?>
<!DOCTYPE svg PUBLIC "-//W3C//DTD SVG 1.1//EN" "http://www.w3.org/Graphics/SVG/1.1/DTD/svg11.dtd">
<svg width="270pt" height="270pt" viewBox="0 0 270 270" version="1.1" xmlns="http://www.w3.org/2000/svg">
<path fill="#ffffff" d=" M 0.00 0.00 L 270.00 0.00 L 270.00 270.00 L 0.00 270.00 L 0.00 0.00 Z" />
<path fill="#6ddade" d=" M 125.95 31.93 C 128.48 27.36 131.14 22.85 134.00 18.48 C 136.86 22.85 139.52 27.36 142.05 31.93 C 161.61 65.95 181.38 99.84 200.84 133.91 C 156.28 134.06 111.72 134.06 67.16 133.91 C 86.62 99.84 106.39 65.94 125.95 31.93 Z" />
<path fill="#6ddade" d=" M 50.35 163.40 C 51.37 161.92 53.33 162.14 54.90 161.96 C 103.60 162.04 152.30 162.00 201.00 161.99 C 206.19 162.10 211.47 161.37 216.59 162.46 C 218.88 164.28 220.14 167.03 221.60 169.49 C 225.50 176.78 229.91 183.78 233.84 191.05 C 203.56 191.49 173.28 191.10 143.00 191.24 C 106.72 191.10 70.44 191.49 34.16 191.05 C 37.51 184.84 41.23 178.84 44.65 172.67 C 46.45 169.53 47.98 166.18 50.35 163.40 Z" />
<path fill="#6ddade" d=" M 37.89 214.12 C 43.96 214.24 51.14 212.50 56.25 216.69 C 59.54 220.70 59.64 228.04 55.38 231.43 C 51.19 233.77 46.13 233.19 41.51 233.50 C 41.44 237.33 41.33 241.15 41.20 244.98 C 40.37 244.97 38.70 244.96 37.87 244.96 C 37.56 234.68 37.53 224.39 37.89 214.12 Z" />
<path fill="#6ddade" d=" M 100.89 214.03 C 101.70 214.04 103.31 214.06 104.11 214.07 C 104.45 224.14 104.46 234.21 104.12 244.28 C 99.40 244.60 94.29 246.61 89.81 244.29 C 86.25 242.23 86.54 237.55 86.39 234.00 C 86.54 230.44 86.27 225.78 89.81 223.70 C 93.10 221.86 97.01 222.85 100.53 223.28 C 100.65 220.19 100.77 217.11 100.89 214.03 Z" />
<path fill="#6ddade" d=" M 164.88 214.87 C 168.87 213.08 173.89 213.03 177.71 215.27 C 180.10 216.61 180.52 219.54 181.44 221.87 C 180.39 222.06 179.34 222.27 178.29 222.46 C 177.13 220.62 176.08 218.67 174.51 217.13 C 172.25 216.26 169.64 216.32 167.38 217.13 C 164.60 218.16 163.75 222.07 165.32 224.42 C 169.30 227.98 175.16 228.29 179.21 231.75 C 182.68 234.97 182.05 241.48 177.90 243.86 C 173.56 246.45 167.63 246.39 163.42 243.57 C 160.93 242.05 160.71 238.91 159.95 236.38 C 160.97 236.45 161.99 236.52 163.01 236.60 C 164.10 238.33 165.08 240.17 166.56 241.62 C 170.78 244.80 179.56 241.72 177.53 235.52 C 175.05 230.86 168.78 230.86 164.67 228.24 C 159.30 225.87 159.70 217.21 164.88 214.87 Z" />
<path fill="#6ddade" d=" M 221.47 214.20 C 222.57 214.14 223.68 214.10 224.79 214.05 C 225.01 224.07 225.01 234.09 224.80 244.12 C 220.31 244.46 215.67 246.28 211.24 244.78 C 207.05 243.01 207.15 237.82 207.08 234.00 C 207.22 230.39 206.95 225.64 210.58 223.57 C 213.84 221.88 217.64 222.85 221.10 223.24 C 221.23 220.22 221.35 217.21 221.47 214.20 Z" />
<path fill="#ffffff" d=" M 41.73 216.89 C 45.70 217.26 50.85 215.76 53.83 219.15 C 55.34 222.13 55.51 226.53 53.00 229.02 C 49.68 231.15 45.46 230.15 41.73 230.36 C 41.56 225.87 41.56 221.38 41.73 216.89 Z" />
<path fill="#6ddade" d=" M 64.22 226.05 C 66.96 221.49 73.89 221.33 78.04 223.97 C 81.40 226.14 80.68 230.64 81.19 234.07 C 76.39 234.20 71.59 234.35 66.80 234.37 C 67.19 237.19 66.15 241.46 69.66 242.59 C 74.28 244.41 77.32 239.05 81.19 237.48 C 80.38 240.19 79.88 243.71 76.77 244.76 C 72.37 246.69 65.15 245.98 63.72 240.57 C 62.86 235.82 62.60 230.67 64.22 226.05 Z" />
<path fill="#6ddade" d=" M 110.20 223.72 C 113.77 223.37 117.31 222.84 120.86 222.30 C 120.86 223.31 120.87 224.33 120.88 225.34 C 118.68 225.83 116.48 226.32 114.29 226.82 C 113.68 232.80 113.42 238.80 113.70 244.81 C 112.53 244.86 111.36 244.92 110.20 244.98 C 109.96 237.89 109.97 230.80 110.20 223.72 Z" />
<path fill="#6ddade" d=" M 131.44 222.46 C 135.11 221.89 139.90 222.74 141.63 226.45 C 142.93 230.48 142.76 234.85 142.28 239.01 C 141.72 246.73 129.69 247.92 125.86 242.17 C 124.00 237.78 124.31 232.72 125.05 228.10 C 125.47 224.92 128.42 222.84 131.44 222.46 Z" />
<path fill="#6ddade" d=" M 184.88 222.93 C 185.64 222.98 187.15 223.10 187.91 223.15 C 190.34 228.34 192.52 233.64 194.50 239.02 C 196.71 233.75 198.93 228.49 201.22 223.25 C 202.37 223.10 203.52 222.95 204.68 222.81 C 201.14 231.82 197.28 240.70 193.67 249.68 C 192.88 252.22 190.60 253.62 188.34 254.70 C 189.41 251.41 190.88 248.26 191.86 244.94 C 192.82 242.14 191.36 239.34 190.34 236.79 C 188.24 232.28 186.44 227.64 184.88 222.93 Z" />
<path fill="#ffffff" d=" M 66.49 231.99 C 66.76 228.73 67.89 224.51 72.05 224.96 C 76.27 224.42 77.46 228.67 77.65 231.99 C 73.93 232.01 70.21 232.01 66.49 231.99 Z" />
<path fill="#ffffff" d=" M 93.38 225.28 C 95.97 224.52 100.04 225.17 100.38 228.43 C 101.05 232.09 101.05 235.91 100.38 239.58 C 99.77 243.59 93.98 243.87 91.39 241.65 C 89.76 238.72 90.10 235.17 90.11 231.94 C 90.30 229.49 90.31 225.85 93.38 225.28 Z" />
<path fill="#ffffff" d=" M 131.40 225.32 C 133.98 224.51 138.09 225.09 138.45 228.38 C 139.14 232.07 139.14 235.93 138.44 239.62 C 137.80 244.26 129.21 244.21 128.63 239.57 C 127.94 235.67 127.86 231.56 128.82 227.70 C 129.03 226.38 130.21 225.65 131.40 225.32 Z" />
<path fill="#ffffff" d=" M 214.40 225.16 C 216.84 224.54 220.55 225.23 220.97 228.19 C 221.77 232.00 221.78 236.01 220.97 239.81 C 220.44 243.04 216.20 243.60 213.64 242.59 C 210.25 241.30 210.93 236.90 210.66 234.00 C 210.85 230.87 210.33 225.91 214.40 225.16 Z" />
</svg>
